<?xml version="1.0" encoding="utf-8"?>
<!-- Generator: Adobe Illustrator 21.1.0, SVG Export Plug-In . SVG Version: 6.00 Build 0)  -->
<svg version="1.1" id="Layer_1" xmlns="http://www.w3.org/2000/svg" xmlns:xlink="http://www.w3.org/1999/xlink" x="0px" y="0px"
	 viewBox="0 0 310 42" style="enable-background:new 0 0 310 42;" xml:space="preserve">
<style type="text/css">
	.st0{fill:#333333;}
	.st1{font-family:'ArialMT';}
	.st2{font-size:28px;}
</style>
<title>Group</title>
<desc>Created with Sketch.</desc>
<g id="Page-1">
	<g id="Artboard" transform="translate(-359.000000, -35.000000)">
		<g id="Group" transform="translate(359.000000, 35.000000)">
			<text transform="matrix(1 0 0 1 245 36)" class="st0 st1 st2">pool</text>
			<g id="Group-32" transform="translate(-0.000000, 0.000000)">
				<path id="Fill-1" class="st0" d="M171.5,29.8c-6.8,0-12.3-5.5-12.3-12.2c0-6.8,5.5-12.3,12.3-12.3s12.2,5.5,12.2,12.3
					C183.7,24.3,178.3,29.8,171.5,29.8 M171.5,0C161.8,0,154,7.9,154,17.5c0,9.6,7.8,17.5,17.5,17.5c9.6,0,17.5-7.8,17.5-17.5
					C189,7.9,181.1,0,171.5,0"/>
				<path id="Fill-3" class="st0" d="M76.3,0c-9.7,0-17.5,7.9-17.5,17.5c0,9.6,7.8,17.5,17.5,17.5c2,0,3.9-0.4,5.7-1
					c0.1,0,0.4-0.2,0.4-0.7v-4.8c0-0.4-0.3-0.3-0.5-0.2c-1.7,0.9-3.6,1.4-5.7,1.4c-6.8,0-12.2-5.5-12.2-12.2S69.5,5.2,76.3,5.2
					c6.8,0,12.2,5.5,12.2,12.3v0V30v0v4c0,0.2,0.2,0.4,0.4,0.4h4.4c0.2,0,0.4-0.2,0.4-0.4V17.5C93.8,7.9,85.9,0,76.3,0"/>
				<path id="Fill-5" class="st0" d="M210.7,0C202.6,0,196,6.8,196,15.1v12.5v6.9c0,0.2,0.2,0.4,0.4,0.4h4.3c0.2,0,0.4-0.2,0.4-0.4
					v-7.4v-12c0-5.4,4.3-9.8,9.5-9.8c5.3,0,9.5,4.4,9.5,9.8v13.2v6.2c0,0.2,0.2,0.4,0.4,0.4h4.3c0.2,0,0.4-0.2,0.4-0.4v-1.1V15.1h0
					C225.4,6.8,218.8,0,210.7,0"/>
				<path id="Fill-7" class="st0" d="M117.2,0c-8.2,0-15,6.8-15,15.1v18.3v1.1c0,0.2,0.2,0.4,0.4,0.4h4.4c0.2,0,0.4-0.2,0.4-0.4
					v-6.2V15.1c0-5.4,4.3-9.8,9.7-9.8c0.2,0,0.4-0.2,0.4-0.4V0.4C117.6,0.2,117.4,0,117.2,0"/>
				<path id="Fill-9" class="st0" d="M37.5,0c-4.6,0-8.9,2.2-11.6,6c-2.7-3.7-7-6-11.6-6C6.4,0,0,6.4,0,14.2v20.3
					C0,34.8,0.2,35,0.4,35h4.5c0.2,0,0.4-0.2,0.4-0.4V14.2c0-4.9,4-8.9,8.9-8.9c4.9,0,8.9,4,8.9,8.9v20.3c0,0.2,0.2,0.4,0.4,0.4h4.5
					c0.2,0,0.4-0.2,0.4-0.4V14.2c0-4.9,4-8.9,8.9-8.9c4.9,0,8.9,4,8.9,8.9v20.3c0,0.2,0.2,0.4,0.5,0.4h4.5c0.3,0,0.4-0.2,0.4-0.4
					V14.2C51.8,6.4,45.4,0,37.5,0"/>
				<path id="Fill-11" class="st0" d="M238.9,1.4h-4.7c-0.3,0-0.5,0.2-0.5,0.4v32.7c0,0.2,0.2,0.4,0.5,0.4h4.7
					c0.3,0,0.5-0.2,0.5-0.4V1.8C239.4,1.6,239.2,1.4,238.9,1.4"/>
				<path id="Fill-13" class="st0" d="M146.6,26.5c-0.2-0.2-0.5-0.1-0.6,0c-2.2,2-5.1,3.3-8.3,3.3c-6.7,0-12.1-5.5-12.1-12.3
					S131,5.3,137.7,5.3c3.2,0,6.1,1.2,8.3,3.3c0.1,0.1,0.4,0.2,0.6,0c0,0,2.8-2.8,3.1-3.1c0.3-0.3,0.1-0.6,0-0.7
					c-3.1-3-7.3-4.8-11.9-4.8c-9.6,0-17.3,7.9-17.3,17.5c0,9.6,7.8,17.5,17.3,17.5c4.6,0,8.8-1.8,11.9-4.8c0.1-0.1,0.3-0.4,0-0.7
					C149.4,29.3,146.6,26.5,146.6,26.5"/>
			</g>
		</g>
	</g>
</g>
</svg>
