<?xml version="1.0" encoding="UTF-8"?>
<svg width="310px" height="42px" viewBox="0 0 310 42" version="1.1" xmlns="http://www.w3.org/2000/svg" xmlns:xlink="http://www.w3.org/1999/xlink">
    <!-- Generator: Sketch 52.2 (67145) - http://www.bohemiancoding.com/sketch -->
    <title>Group</title>
    <desc>Created with Sketch.</desc>
    <g id="Page-1" stroke="none" stroke-width="1" fill="none" fill-rule="evenodd">
        <g id="Artboard" transform="translate(-359.000000, -35.000000)" fill="#FFFFFF">
            <g id="Group" transform="translate(359.000000, 35.000000)">
                <text id="pool" font-family="Comfortaa-Regular, Comfortaa" font-size="28" font-weight="normal">
                    <tspan x="245" y="36">pool</tspan>
                </text>
                <g id="Group-32" transform="translate(-0.000000, 0.000000)">
                    <path d="M171.5,29.7516089 C164.743882,29.7516089 159.244896,24.2602162 159.244896,17.5038836 C159.244896,10.7464414 164.743882,5.24950068 171.5,5.24950068 C178.256118,5.24950068 183.748447,10.7464414 183.748447,17.5038836 C183.748447,24.2602162 178.256118,29.7516089 171.5,29.7516089 M171.5,0 C161.849036,0 154,7.85261389 154,17.5038836 C154,27.1507149 161.849036,35 171.5,35 C181.148745,35 189,27.1507149 189,17.5038836 C189,7.85261389 181.148745,0 171.5,0" id="Fill-1"></path>
                    <path d="M76.2994452,0 C66.6476779,0 58.8,7.85236495 58.8,17.5033287 C58.8,27.1509637 66.6476779,35 76.2994452,35 C78.3021398,35 80.226058,34.6471595 82.0135045,34.0224765 C82.1555239,33.9747654 82.4251387,33.8471659 82.4251387,33.3423155 L82.4251387,28.5401344 C82.4251387,28.1018577 82.1178,28.2671823 81.9635758,28.351509 C80.26822,29.2402676 78.3454113,29.7506657 76.2994452,29.7506657 C69.5446505,29.7506657 64.0502774,24.2594471 64.0502774,17.5033287 C64.0502774,10.7472102 69.5446505,5.24933426 76.2994452,5.24933426 C83.0520209,5.24933426 88.5486131,10.7472102 88.5486131,17.5033287 L88.5486131,17.545492 L88.5486131,29.9792354 L88.5486131,29.9747971 L88.5486131,34.0158192 C88.5486131,34.2610322 88.7483278,34.4518767 88.9890949,34.4518767 L93.3584086,34.4518767 C93.608052,34.4518767 93.8,34.2610322 93.8,34.0158192 L93.8,17.5033287 C93.8,7.85236495 85.9467744,0 76.2994452,0" id="Fill-3"></path>
                    <path d="M210.696711,0 C202.591923,0 196,6.77997488 196,15.1109465 L196,27.6440372 L196,34.5570191 C196,34.8016167 196.190752,35 196.429741,35 L200.753464,35 C200.997934,35 201.181013,34.8016167 201.181013,34.5570191 L201.181013,27.1424431 L201.181013,15.1109465 C201.181013,9.71852758 205.454307,5.33042414 210.696711,5.33042414 C215.946789,5.33042414 220.21241,9.71852758 220.21241,15.1109465 L220.21241,28.3428875 L220.21241,34.5570191 C220.21241,34.8016167 220.403162,35 220.639958,35 L224.963681,35 C225.203766,35 225.392326,34.8016167 225.392326,34.5570191 L225.392326,33.4456217 L225.392326,15.1109465 L225.4,15.1109465 C225.4,6.77997488 218.800403,0 210.696711,0" id="Fill-5"></path>
                    <path d="M117.157035,0 C108.909187,0 102.2,6.77997488 102.2,15.1109465 L102.2,33.4456217 L102.2,34.5570191 C102.2,34.8016167 102.396377,35 102.638502,35 L107.040255,35 C107.283495,35 107.477641,34.8016167 107.477641,34.5570191 L107.477641,28.3428875 L107.477641,15.1109465 C107.477641,9.71852758 111.821374,5.33042414 117.157035,5.33042414 C117.401391,5.33042414 117.6,5.13767673 117.6,4.88631606 L117.6,0.445235258 C117.6,0.197256127 117.401391,0 117.157035,0" id="Fill-7"></path>
                    <path d="M37.5086266,0 C32.8814831,0 28.5884089,2.21490451 25.8954702,5.95600786 C23.2047965,2.21490451 18.9128547,0 14.2868436,0 C6.40960168,0 0,6.38095391 0,14.2216032 L0,34.5570191 C0,34.8016167 0.195911853,35 0.442783438,35 L4.90912072,35 C5.15712474,35 5.3530366,34.8016167 5.3530366,34.5570191 L5.3530366,14.2216032 C5.3530366,9.32288815 9.36526606,5.33042414 14.2868436,5.33042414 C19.210686,5.33042414 23.2229155,9.32288815 23.2229155,14.2216032 L23.2229155,34.5570191 C23.2229155,34.8016167 23.4199598,35 23.6668314,35 L28.1320362,35 C28.3800402,35 28.5748196,34.8016167 28.5748196,34.5570191 L28.5748196,14.2216032 C28.5748196,9.32288815 32.5847842,5.33042414 37.5086266,5.33042414 C42.4302042,5.33042414 46.4379039,9.32288815 46.4379039,14.2216032 L46.4379039,34.5570191 C46.4379039,34.8016167 46.6394779,35 46.8886144,35 L51.3504219,35 C51.6029557,35 51.8,34.8016167 51.8,34.5570191 L51.8,14.2216032 C51.8,6.38095391 45.3892659,0 37.5086266,0" id="Fill-9"></path>
                    <path d="M238.930178,1.4 L234.269822,1.4 C234.010651,1.4 233.8,1.59791871 233.8,1.83542117 L233.8,34.5678775 C233.8,34.8064795 234.010651,35 234.269822,35 L238.930178,35 C239.195266,35 239.4,34.8064795 239.4,34.5678775 L239.4,1.83542117 C239.4,1.59791871 239.195266,1.4 238.930178,1.4" id="Fill-11"></path>
                    <path d="M146.60754,26.4511016 C146.373387,26.234744 146.106255,26.3689967 145.995224,26.4732921 C143.831783,28.5081629 140.928507,29.7519417 137.742707,29.7519417 C131.046813,29.7519417 125.603032,24.2553495 125.603032,17.5016643 C125.603032,10.7479791 131.046813,5.25138691 137.742707,5.25138691 C140.928507,5.25138691 143.831783,6.49738469 145.995224,8.52892693 C146.106255,8.63211285 146.373387,8.76525598 146.60754,8.5533365 C146.60754,8.5533365 149.398687,5.73514028 149.660322,5.46996354 C149.925256,5.20256776 149.752664,4.89633856 149.637237,4.78205738 C146.530588,1.81851324 142.342219,0 137.742707,0 C128.176516,0 120.4,7.85322555 120.4,17.5016643 C120.4,27.1512126 128.176516,35 137.742707,35 C142.342219,35 146.530588,33.1837058 149.637237,30.2212712 C149.752664,30.10699 149.925256,29.7996513 149.660322,29.5344746 C149.398687,29.2659693 146.60754,26.4511016 146.60754,26.4511016" id="Fill-13"></path>
                </g>
            </g>
        </g>
    </g>
</svg>